<svg width="125" height="24" viewBox="0 0 125 24" fill="none" xmlns="http://www.w3.org/2000/svg">
<g clip-path="url(#clip0_1335_4395)">
<path d="M7.98354 0.155579C6.5745 0.155579 5.20167 0.311161 3.92539 0.311161C2.51635 0.311161 1.63533 0.279468 1.01378 0.247775C0.654735 0.216083 0.392237 0.216083 0.196119 0.18439L0 0.682829C0.0995679 0.8096 0.196119 1.27635 0.292669 2.12052C0.455599 3.49483 0.621545 6.40192 0.621545 11.9942C0.621545 17.5866 0.458616 20.3697 0.292669 21.7757C0.196119 22.6199 0.0965507 23.0896 0 23.2134L0.196119 23.7148L0.850853 23.6514C1.27628 23.6197 1.99739 23.6197 2.97799 23.6514C3.86203 23.6831 5.1715 23.7148 6.05554 23.7148C15.9701 23.7148 20.6498 18.6526 20.6498 11.2134C20.6498 3.77431 14.368 0.155579 7.98354 0.155579ZM5.00555 22.4067C4.51375 22.4067 4.18789 22.375 3.95858 22.3433L3.6297 22.2799C3.59651 22.061 3.53014 21.5309 3.49996 20.6867C3.4004 19.3124 3.37022 16.7193 3.37022 12C3.37022 7.28067 3.4004 4.62425 3.49996 3.24994C3.53315 2.43745 3.59953 1.90732 3.66289 1.68835L5.1021 1.59327C5.91977 1.56158 6.93355 1.4982 7.81759 1.4982C12.5305 1.4982 17.7352 5.34165 17.7352 11.248C17.7352 17.8747 14.1688 22.4038 5.00555 22.4038V22.4067Z" fill="#D7DAD1"/>
<path d="M42.0628 11.4382C40.6568 7.782 39.7063 5.34454 39.1512 3.81465C38.7921 2.90997 38.5296 2.18968 38.3667 1.65955L41.3115 1.75462L42.3917 1.81801L42.5546 1.69124L42.1292 0.0662693L40.527 0.190159C39.5102 0.285237 38.0077 0.345741 36.1732 0.314048C34.0792 0.314048 32.5073 0.250663 31.4935 0.158466C30.872 0.126773 30.3801 0.0633881 29.9547 0.00288391L29.7586 0.158466L30.2504 1.81513L31.1676 1.75174L34.1788 1.65667L33.1318 4.21801C32.4439 5.87467 31.4633 8.24874 30.2504 11.2509C27.8306 17.1256 26.3552 20.1882 25.4742 21.6893C24.9492 22.594 24.5569 23.0953 24.2944 23.2509L24.4574 23.7522L25.0125 23.6888C25.3716 23.6571 25.8302 23.6255 26.322 23.6255C26.7474 23.6255 27.206 23.6571 27.5017 23.6888L27.9935 23.7522L28.2228 23.2509C28.1233 23.127 28.1897 22.594 28.419 21.6893C28.7478 20.1277 29.828 17.0017 32.1814 10.8159C34.1456 10.7208 36.6318 10.6891 38.8585 10.7842C41.2149 16.9412 42.1955 20.0355 42.621 21.6288C42.8503 22.5652 42.9468 23.0982 42.8835 23.2538L43.0464 23.7551C43.146 23.7234 43.3089 23.7234 43.4718 23.6917C43.7645 23.66 44.2231 23.6283 44.8778 23.6283C45.436 23.6283 45.9912 23.66 46.3834 23.6917L47.0382 23.7551L47.2011 23.2538C47.0382 23.0982 46.7425 22.5969 46.3171 21.7239C45.5959 20.1911 44.3197 17.2869 42.0628 11.4411V11.4382ZM32.7034 9.49916C33.6508 7.0934 34.3719 5.34166 34.8637 4.18632C35.1594 3.5006 35.3857 2.9359 35.615 2.46915L36.3029 4.18632C36.7947 5.34166 37.4465 7.0934 38.3637 9.46747C36.5292 9.43578 34.568 9.40409 32.7004 9.49916H32.7034Z" fill="#D7DAD1"/>
<path d="M72.76 21.2197C72.3678 20.315 72.0087 18.4999 72.0087 14.7832C72.0087 7.84537 72.1717 4.37647 72.3376 2.53253C72.4372 1.46938 72.5337 0.844174 72.6967 0.656899L72.5337 0.187271L72.0419 0.250656C71.6829 0.282349 71.2906 0.314042 70.7657 0.314042C70.2738 0.314042 69.8183 0.282349 69.4562 0.250656L68.8678 0.187271L68.6717 0.688592C68.8015 0.875867 68.901 1.50108 69.0006 2.56422C69.1635 4.40816 69.3295 7.87707 69.3295 14.8149C69.3295 20.5657 65.6304 22.5018 62.4563 22.5018C59.2822 22.5018 55.9119 20.5945 55.9119 14.8149C55.9119 7.87707 56.0417 4.28427 56.2076 2.53253C56.3072 1.50108 56.4037 0.875867 56.5365 0.688592L56.3736 0.187271L55.8486 0.250656C55.4895 0.282349 55.0309 0.314042 54.4094 0.314042C53.7878 0.314042 53.3624 0.282349 53.0003 0.250656L52.4783 0.187271L52.2822 0.688592C52.4452 0.875867 52.5779 1.50108 52.6745 2.56422C52.8374 4.40816 53.0667 7.87707 53.0667 14.8466C53.0667 21.2197 56.799 23.9078 62.4593 23.9078C65.208 23.9078 68.2855 22.7525 70.1501 20.4706C70.2799 22.2511 70.7717 23.7839 71.526 24.0029C72.2139 23.4699 72.7691 23.127 73.6531 22.3462L73.5234 22.0956C73.2277 22.0639 72.9984 21.7527 72.7691 21.2197H72.76Z" fill="#D7DAD1"/>
<path d="M102.184 0.25066C101.954 0.282353 101.595 0.314046 100.974 0.314046C100.452 0.314046 99.9932 0.282353 99.6975 0.25066L99.2389 0.155582L99.0096 0.685714C99.1725 0.841296 99.3053 1.34262 99.4018 2.21561C99.5647 3.71669 99.794 6.71597 99.794 12.654C99.794 15.3104 99.7608 16.8432 99.7277 17.7162C99.6945 18.2463 99.6945 18.5921 99.6945 18.811L96.5867 15.1866C94.8187 13.187 92.7247 10.7179 91.3519 8.96615C88.1144 5.0593 86.28 2.84082 85.3295 1.62209C84.7744 0.904682 84.3821 0.435054 84.1498 0.184394L83.5946 0.247779C83.2356 0.279472 82.777 0.311164 82.252 0.311164C81.5641 0.311164 81.0089 0.247779 80.6498 0.155582C80.4537 0.12389 80.2908 0.0605042 80.158 0L79.9619 0.155582L80.4537 1.81224L80.7162 1.74886C80.9455 1.71717 81.205 1.68547 81.6968 1.68547C81.9593 2.68523 82.2852 5.21489 82.2852 12.9969C82.2852 18.0591 82.0227 20.6521 81.7632 21.9342C81.6003 22.6833 81.4343 23.1212 81.2382 23.2451L81.4675 23.7465L81.9895 23.6831C82.3485 23.6514 82.7438 23.6197 83.2326 23.6197C83.7576 23.6197 84.18 23.6514 84.4757 23.6831L84.9343 23.7465L85.1304 23.2451C84.9675 23.1529 84.8045 22.6833 84.6718 21.9025C84.4093 20.557 84.2132 17.9352 84.2132 12.6828V7.58896C84.2132 6.68427 84.2132 5.8084 84.2464 4.90084C84.6718 5.33878 85.1938 5.96399 85.8817 6.74478L91.542 13.4636C95.4704 18.2146 97.5311 20.8077 98.5781 22.2137C99.1996 23.0579 99.5587 23.588 99.7216 23.8387L101.653 23.902L101.945 23.6831L101.846 21.1534C101.749 19.3095 101.749 16.4341 101.749 11.9337C101.749 6.37023 101.912 3.52653 102.175 2.08884C102.307 1.24466 102.47 0.77503 102.633 0.619448L102.47 0.14982L102.175 0.244898L102.184 0.25066Z" fill="#D7DAD1"/>
<path d="M124.771 21.5308C124.312 21.6864 123.624 21.8449 122.74 21.9688C121.201 22.1878 118.682 22.375 114.624 22.375C114.558 22.0956 114.494 21.4992 114.461 20.5311C114.361 18.9061 114.298 15.9068 114.298 10.4067C117.798 10.4384 119.663 10.4384 120.71 10.4701C121.331 10.5018 121.723 10.5018 121.953 10.5335L122.248 8.90852L122.052 8.78463C121.889 8.81632 121.497 8.87971 120.873 8.90852C119.826 9.0036 117.928 9.03241 114.295 9.03241C114.325 5.90636 114.392 4.0653 114.491 2.97047C114.524 2.34526 114.591 1.90732 114.654 1.62497C118.613 1.62497 120.839 1.65666 122.049 1.74886C122.77 1.78055 123.259 1.81224 123.488 1.84393L123.618 1.71716L123.193 0.0288086C122.801 0.0921939 122.309 0.152698 121.754 0.184391C120.806 0.279469 119.397 0.30828 117.566 0.30828C115.046 0.30828 113.474 0.276588 112.461 0.244895L111.121 0.149817L110.925 0.651138C111.024 0.80672 111.121 1.27635 111.217 2.12053C111.38 3.52653 111.546 6.40192 111.546 11.9942C111.546 17.5866 111.383 20.4302 111.217 21.8363C111.121 22.6804 111.021 23.1501 110.925 23.2739L111.121 23.7753C111.48 23.7436 111.972 23.7436 112.593 23.7119C113.64 23.6802 115.279 23.6168 117.861 23.6168C120.088 23.6168 121.723 23.6485 122.867 23.7407C123.522 23.7724 124.077 23.8358 124.569 23.8646L124.994 21.6461L124.765 21.5222L124.771 21.5308Z" fill="#D7DAD1"/>
</g>
<defs>
<clipPath id="clip0_1335_4395">
<rect width="125" height="24" fill="white"/>
</clipPath>
</defs>
</svg>
