<svg width="150" height="40" viewBox="0 0 150 40" fill="none" xmlns="http://www.w3.org/2000/svg">
<g clip-path="url(#clip0_507_2511)">
<path d="M6.24022 15.743C4.89221 17.1107 3.58207 18.5309 2.18105 19.846L2.12804 20.094L19.9248 37.8433L37.7594 20.0263L27.4751 9.72387L16.1004 20.9882L15.1916 20.094L27.407 7.67239L39.8723 19.9437L19.9248 39.8422L0 19.9512L19.8793 0.0977173L20.8866 1.09715L20.7881 1.30005C15.9565 6.13191 11.034 10.8811 6.24022 15.743Z" fill="#161616"/>
<path d="M24.7564 27.5409L19.9248 32.3652L18.8721 31.3207L30.4892 19.7032C30.5801 19.5905 30.4968 19.5379 30.4362 19.4552C29.8682 18.6361 28.5127 17.7494 27.8614 16.9153L16.108 28.5779L7.51251 19.9512L23.6583 3.84748C23.7643 3.83245 24.7716 4.71917 24.658 4.93709L9.63297 20.0338L16.108 26.4813L27.8689 14.8187L32.6324 19.6431L24.7564 27.5484V27.5409Z" fill="#161616"/>
<path d="M60.7664 0.0751513C61.5691 -0.037567 64.2197 -0.037567 64.9543 0.157811C65.6889 0.35319 66.113 0.796549 66.2947 1.52546L66.3099 15.8557C66.1205 16.6222 65.5147 17.1633 64.7347 17.2835C63.9546 17.4037 61.4177 17.4037 60.6604 17.2835C59.3956 17.0881 59.0549 16.1037 58.9716 14.969C58.6838 10.836 59.1988 6.36484 58.9716 2.20177C59.0852 1.04453 59.5168 0.255501 60.7588 0.0826659L60.7664 0.0751513ZM61.1602 1.57055C60.8497 1.63818 60.6982 1.88616 60.6831 2.19426L60.7058 15.3372C60.7437 15.495 60.8118 15.6002 60.9481 15.6979C61.3495 15.976 63.4094 15.9835 63.9471 15.9008C64.3257 15.8407 64.7195 15.5777 64.7119 15.1644L64.6892 2.02142C64.6211 1.74338 64.4317 1.60061 64.1515 1.55552C63.7199 1.48789 61.554 1.48037 61.1602 1.57055Z" fill="#161616"/>
<path d="M64.7498 22.7015C66.166 22.8067 66.3477 24.0391 66.4235 25.2339C66.4992 26.4287 66.5068 28.2848 66.4235 29.5322C66.3553 30.5467 66.1584 31.6063 65.0149 31.8768L66.325 39.9549C66.0069 39.8948 65.0603 40.1127 64.9391 39.7821L63.6138 31.9745H60.5998V39.9549H59.1457L58.9943 39.8046V22.7466C58.9943 22.7466 63.3261 22.5963 64.7649 22.7015H64.7498ZM60.5846 30.5692H64.0531C64.2878 30.5692 64.7119 30.1935 64.6968 29.9155C64.5983 28.3074 64.8483 26.5114 64.7044 24.9333C64.6741 24.5726 64.4696 24.0917 64.0455 24.0917H60.577V30.5768L60.5846 30.5692Z" fill="#161616"/>
<path d="M73.4513 0.0526123V7.93539H77.6695V0.0526123H79.275V17.306H77.6695V9.42327H73.4513V17.306H71.7474C71.7474 17.1172 71.7474 17.013 71.7474 16.9604V0.0526123H73.4589H73.4513Z" fill="#161616"/>
<path d="M53.4508 5.33534H51.8453V1.99887C51.8453 1.87112 51.5576 1.58557 51.391 1.55551C51.0047 1.48037 49.1039 1.4954 48.6722 1.55551C48.2406 1.61563 48.1042 1.93124 48.0361 2.31448C48.2103 5.92899 47.7786 9.79898 48.0209 13.3834C48.0664 13.9996 48.1951 15.0066 48.6798 15.4274C48.9146 15.6303 49.8006 15.9234 50.0884 15.9234H51.8453V9.43829L50.3837 9.34811C50.2929 9.21285 50.2005 8.09318 50.4277 7.94289H53.3069L53.4584 8.09318V17.3211H49.4901C49.4068 17.3211 48.6798 17.1182 48.5359 17.0656C47.0894 16.5546 46.6123 15.3147 46.5215 13.8794C46.2564 9.88916 46.6881 5.5758 46.5745 1.548C46.8623 0.608679 47.3924 0.142776 48.3844 0.0526015C49.2099 -0.0150296 51.7242 -0.0450878 52.3982 0.263009C52.7995 0.443359 53.2085 0.931805 53.3145 1.34511C53.3448 1.45782 53.4584 2.11911 53.4584 2.19425V5.33534H53.4508Z" fill="#161616"/>
<path d="M149.947 27.879H148.341V24.535C148.341 24.535 148.046 24.2344 147.978 24.1969C147.645 24.024 145.736 24.0316 145.274 24.0842C144.714 24.1443 144.562 24.3021 144.517 24.8281C144.449 25.6322 144.411 27.6611 144.525 28.4201C144.903 30.9224 149.629 30.5767 149.947 34.2063C150.023 35.0554 150.053 37.9786 149.818 38.6774C149.538 39.5266 148.728 39.8798 147.887 39.9474C146.971 40.0225 144.449 40.0601 143.714 39.5867C143.434 39.4063 142.904 38.7075 142.904 38.3919V34.6496H144.509V38.0913C144.509 38.1289 144.759 38.3318 144.835 38.3618C145.138 38.4896 147.243 38.4896 147.675 38.437C148.107 38.3844 148.281 38.2266 148.326 37.7907C148.41 37.0843 148.425 34.8901 148.319 34.2063C147.986 32.0195 143.888 31.9444 143.071 29.2391C142.821 28.4276 142.768 24.7154 142.995 23.9188C143.169 23.3026 143.676 22.8668 144.297 22.724C145.312 22.4836 148.304 22.4385 149.159 22.9945C149.424 23.1674 149.932 23.8362 149.932 24.1217V27.864L149.947 27.879Z" fill="#161616"/>
<path d="M86.4164 22.694V30.5767H89.8319V22.694H91.2405V39.9474H89.8319V31.9669H86.4164V39.7971C86.068 40.1052 85.4546 39.8873 85.0078 39.9474V22.694H86.4164Z" fill="#161616"/>
<path d="M77.4726 26.9848L77.4347 24.4589C77.4347 24.4589 77.3715 24.3717 77.1621 24.2495C76.7759 24.024 74.8296 24.0315 74.307 24.0917C73.7845 24.1518 73.4437 24.3547 73.4513 24.9333L73.474 37.8809C73.5876 38.1965 73.7542 38.4069 74.1026 38.452C74.61 38.5196 76.4199 38.5196 76.9122 38.437C77.1091 38.4069 77.4726 38.189 77.4726 37.9936V35.5514H79.0326C79.1765 35.6415 79.1689 35.7467 79.1917 35.897C79.328 37.0468 79.3053 39.1583 78.086 39.6919C77.2378 40.0601 73.686 40.0826 72.853 39.6919C72.4062 39.4815 71.9594 38.9479 71.8761 38.467C71.8761 34.1612 71.4444 29.4044 71.7473 25.1212C71.8306 23.9414 72.1336 22.8367 73.5119 22.6789C74.3828 22.5812 76.5638 22.5812 77.4347 22.6789C77.9421 22.739 78.5555 23.0546 78.8357 23.483C79.2068 24.0541 79.2825 25.9327 79.1992 26.6241C79.1841 26.7668 79.1841 26.8796 79.0402 26.9697H77.4802L77.4726 26.9848Z" fill="#161616"/>
<path d="M130.34 26.9848H128.735V24.6403C128.735 24.3998 128.288 24.1593 128.061 24.1142C127.584 24.0316 125.372 24.0241 125.024 24.2495C124.873 24.3472 124.789 24.4975 124.736 24.6628L124.706 37.7156C124.653 37.9485 124.926 38.3243 125.115 38.4069C125.327 38.4896 127.864 38.5121 128.174 38.4595C128.318 38.4295 128.727 38.0688 128.727 38.0162V35.5739H130.333C130.446 36.145 130.469 36.7387 130.439 37.3248C130.378 38.6324 130.113 39.6919 128.629 39.9174C127.75 40.0526 124.842 40.0676 124.1 39.7145C123.169 39.2711 123.047 38.3393 122.994 37.4225C122.737 33.3571 123.199 29.0363 122.994 24.9483C123.04 23.8061 123.509 22.8443 124.759 22.709C125.63 22.6113 127.811 22.6113 128.682 22.709C130.734 22.9344 130.53 25.4969 130.34 26.9998V26.9848Z" fill="#161616"/>
<path d="M100.896 0.0526123V1.54801H96.0645V7.93539H100.896V9.43078H96.0645V15.758V15.9083H100.896V17.306H94.3606V0.0526123H100.896Z" fill="#161616"/>
<path d="M117.58 22.694V24.0917H112.854V30.5692H117.58V31.9669H113.005L112.854 32.1172V38.452H117.58V39.9474H111.143V22.694H117.58Z" fill="#161616"/>
<path d="M51.8377 22.7015L54.2535 39.9474C53.9506 39.8873 52.8601 40.1052 52.7616 39.7821L50.679 24.0842H50.0353L48.0058 39.7746C47.8997 40.0977 46.8244 39.8798 46.5139 39.9399L48.9297 22.6865H51.8377V22.7015Z" fill="#161616"/>
<path d="M90.1348 0.0526123V1.54801H87.3176V17.306H85.7121V1.54801L82.8949 1.58859C82.8949 0.93651 82.8949 0.579821 82.8949 0.0526123H90.1348Z" fill="#161616"/>
<path d="M108.03 22.694V24.0917H105.516V39.9474L104.175 39.9324L104.009 39.6994V24.0917H101.494V22.694H108.03Z" fill="#161616"/>
<path d="M139.791 22.694V24.0917H137.277V39.9474H135.869V24.242L135.725 24.0917H133.362V22.694H139.791Z" fill="#161616"/>
<path d="M98.4803 22.694L98.3819 39.9474H96.8748V22.694H98.4803Z" fill="#161616"/>
</g>
<defs>
<clipPath id="clip0_507_2511">
<rect width="150" height="40" fill="white"/>
</clipPath>
</defs>
</svg>
